<?xml version="1.0" encoding="utf-8"?>
<?xml-stylesheet type="text/xsl" href="rss1.xsl"?>
<rss version="2.0" xmlns:atom="http://www.w3.org/2005/Atom" xmlns:content="http://purl.org/rss/1.0/modules/content/" xmlns:dc="http://purl.org/dc/elements/1.1/" xmlns:media="http://search.yahoo.com/mrss/">
<channel>
 <title>Getty</title>
 <link>http://www.gettyimg.com/</link>
 <atom:link href="http://www.gettyimg.com/" rel="self" type="application/rss+xml" />

 
                <item>
                <title><![CDATA[【HD Live Performances】UPSCALE - Michael Jackson Live At Wembley July 16 1988 1080p60]]></title>
                <link><![CDATA[https://sharemania.us/threads/michael-jackson-live-at-wembley-july-16-1988-1080p60.225366/]]></link>
                <description><![CDATA[<article>
<blockquote class="messageText SelectQuoteContainer ugc baseHtml">
Deinterlaced with QTGMC Slower Preset.<br>
<div class="ToggleTriggerAnchor bbCodeSpoilerContainer">
<button type="button" class="button bbCodeSpoilerButton ToggleTrigger Tooltip JsOnly" data-target="> .SpoilerTarget"><span>Spoiler: <span class="SpoilerTitle">Thumbnails</span></span></button>
<div class="SpoilerTarget bbCodeSpoilerText"><img src="https://i.imgur.com/xvegRko.png" class="bbCodeImage LbImage" alt="[​IMG]" data-url="https://i.imgur.com/xvegRko.png" style=""></div>
</div>
<div class="ToggleTriggerAnchor bbCodeSpoilerContainer">
<button type="button" class="button bbCodeSpoilerButton ToggleTrigger Tooltip JsOnly" data-target="> .SpoilerTarget"><span>Spoiler: <span class="SpoilerTitle">Mediainfo</span></span></button>
<div class="SpoilerTarget bbCodeSpoilerText">
<div class="bbCodeBlock bbCodeCode">
<div class="type">Code:</div>
<pre>General
Complete name                  : Michael Jackson Live At Wembley July 16 1988 HD 60 FPS.mp4
Format                         : MPEG-4
Format profile                 : Base Media
Codec ID                       : isom (isom/iso2/avc1/mp41)
File size                      : 7.66 GiB
Duration                       : 1 h 58 min
Overall bit rate               : 9 265 kb/s
Writing application            : Lavf60.4.101

Video
ID                             : 1
Format                         : AVC
Format/Info                    : Advanced Video Codec
Format profile                 : High@L5
Format settings                : CABAC / 8 Ref Frames
Format settings, CABAC         : Yes
Format settings, Reference fra : 8 frames
Codec ID                       : avc1
Codec ID/Info                  : Advanced Video Coding
Duration                       : 1 h 58 min
Bit rate                       : 8 929 kb/s
Width                          : 1 440 pixels
Height                         : 1 080 pixels
Display aspect ratio           : 4:3
Frame rate mode                : Constant
Frame rate                     : 59.940 (60000/1001) FPS
Color space                    : YUV
Chroma subsampling             : 4:2:0
Bit depth                      : 8 bits
Scan type                      : Progressive
Bits/(Pixel*Frame)             : 0.096
Stream size                    : 7.38 GiB (96%)
Writing library                : x264 core 164 r3095M baee400
Encoding settings              : cabac=1 / ref=8 / deblock=1:0:0 / analyse=0x3:0x133 / me=umh / subme=9 / psy=1 / psy_rd=1.00:0.00 / mixed_ref=1 / me_range=16 / chroma_me=1 / trellis=2 / 8x8dct=1 / cqm=0 / deadzone=21,11 / fast_pskip=1 / chroma_qp_offset=-2 / threads=3 / lookahead_threads=1 / sliced_threads=0 / nr=0 / decimate=1 / interlaced=0 / bluray_compat=0 / constrained_intra=0 / bframes=3 / b_pyramid=2 / b_adapt=2 / b_bias=0 / direct=3 / weightb=1 / open_gop=0 / weightp=2 / keyint=250 / keyint_min=25 / scenecut=40 / intra_refresh=0 / rc_lookahead=60 / rc=crf / mbtree=1 / crf=18.0 / qcomp=0.60 / qpmin=0 / qpmax=69 / qpstep=4 / ip_ratio=1.40 / aq=1:1.00
Codec configuration box        : avcC

Audio
ID                             : 2
Format                         : AAC LC
Format/Info                    : Advanced Audio Codec Low Complexity
Codec ID                       : mp4a-40-2
Duration                       : 1 h 58 min
Source duration                : 1 h 58 min
Source_Duration_LastFrame      : -13 ms
Bit rate mode                  : Constant
Bit rate                       : 320 kb/s
Channel(s)                     : 2 channels
Channel layout                 : L R
Sampling rate                  : 48.0 kHz
Frame rate                     : 46.875 FPS (1024 SPF)
Compression mode               : Lossy
Stream size                    : 271 MiB (3%)
Source stream size             : 271 MiB (3%)
Default                        : Yes
Alternate group                : 1

</pre>
</div></div>
</div>
<div class="ToggleTriggerAnchor bbCodeSpoilerContainer">
<button type="button" class="button bbCodeSpoilerButton ToggleTrigger Tooltip JsOnly" data-target="> .SpoilerTarget"><span>Spoiler: <span class="SpoilerTitle">Download</span></span></button>
<div class="SpoilerTarget bbCodeSpoilerText">
<div class="bbCodeBlock bbCodeVfcHH HiddenContent">
<div class="attribution type">Hidden Content:</div>
<blockquote>You must reply before you can see the hidden data contained here.</blockquote>
</div></div>
</div>
<div class="messageTextEndMarker">&nbsp;</div>
</blockquote>
</article>]]></description>
                <author><![CDATA[glomatico]]></author>
                </item>

                
                <item>
                <title><![CDATA[【SD】DVD - Crystal Waters - Relax (ETV VOB)]]></title>
                <link><![CDATA[https://sharemania.us/threads/crystal-waters-relax-etv-vob.225365/]]></link>
                <description><![CDATA[<article>
<blockquote class="messageText SelectQuoteContainer ugc baseHtml">
<div style="text-align: center"><i><b><span style="color: #330066"><img src="https://i.postimg.cc/wj2MBTtg/04.jpg" class="bbCodeImage LbImage" alt="[​IMG]" data-url="https://i.postimg.cc/wj2MBTtg/04.jpg" style=""><br>
</span></b></i><br>
<b><span style="font-size: 26px"><span style="color: #330066"><span style="text-decoration: underline"><i>Crystal Waters - Relax</i></span></span></span></b><br>
<i><b><span style="color: #330066"><br>
<div class="bbCodeBlock bbCodeVfcHH HiddenContent">
<div class="attribution type">Hidden Content:</div>
<blockquote>You must either reply or click 'Like' to see the hidden information contained here.</blockquote>
</div></span></b></i><br>
​</div>
<div class="messageTextEndMarker">&nbsp;</div>
</blockquote>
</article>]]></description>
                <author><![CDATA[Synthwave_Evans]]></author>
                </item>

                
                <item>
                <title><![CDATA[【Requests】[REQ AUD] - Loud Luxury, Two Friends, Bebe Rexha - If Only I (FLAC)]]></title>
                <link><![CDATA[https://sharemania.us/threads/loud-luxury-two-friends-bebe-rexha-if-only-i-flac.225367/]]></link>
                <description><![CDATA[<article>
<blockquote class="messageText SelectQuoteContainer ugc baseHtml">
Hi! Can someone please share this song in FLAC? I didn't find it in Qobuz but it's on Tidal, in case it's possible to rip it from there:<br>
If Only I: <a href="https://tidal.com/browse/album/301028993" target="_blank" class="externalLink" rel="nofollow">https://tidal.com/browse/album/301028993</a><br>
<br>
Thanks in advance!
<div class="messageTextEndMarker">&nbsp;</div>
</blockquote>
</article>]]></description>
                <author><![CDATA[planetx1999]]></author>
                </item>

                
                <item>
                <title><![CDATA[【Requests】[REQ VID] - American Music Awards 2012 HDTV 480p]]></title>
                <link><![CDATA[https://sharemania.us/threads/american-music-awards-2012-hdtv-480p.225370/]]></link>
                <description><![CDATA[<article>
<blockquote class="messageText SelectQuoteContainer ugc baseHtml">
Anyone have this full show in 480p? <img src="styles/default/xenforo/smilies/big_smile-48.png" class="mceSmilie" alt=":)" title="Smile    :)">
<div class="messageTextEndMarker">&nbsp;</div>
</blockquote>
</article>]]></description>
                <author><![CDATA[jom_30]]></author>
                </item>

                
                <item>
                <title><![CDATA[【Albums (lossy)】Dolby Atmos - Billy Idol - Billy Idol (Dolby Atmos)]]></title>
                <link><![CDATA[https://sharemania.us/threads/billy-idol-billy-idol-dolby-atmos.225368/]]></link>
                <description><![CDATA[<article>
<blockquote class="messageText SelectQuoteContainer ugc baseHtml">
<img src="https://i.scdn.co/image/ab67616d0000b273a20464e6697dc1149d3a5cdc" class="bbCodeImage LbImage" alt="[​IMG]" data-url="https://i.scdn.co/image/ab67616d0000b273a20464e6697dc1149d3a5cdc" style=""> <br>
Source: Tidal<br>
Format: .m4a E-AC3 JOC<br>
<div class="bbCodeBlock bbCodeVfcHH HiddenContent">
<div class="attribution type">Hidden Content:</div>
<blockquote>You must reply before you can see the hidden data contained here.</blockquote>
</div>
<div class="messageTextEndMarker">&nbsp;</div>
</blockquote>
</article>]]></description>
                <author><![CDATA[BbbDdd345]]></author>
                </item>

                </channel></rss>